<svg width="231" height="122" viewBox="0 0 231 122" fill="none" xmlns="http://www.w3.org/2000/svg">
<path d="M67.22 13.5931C67.2929 13.6639 67.3508 13.7487 67.3904 13.8423C67.43 13.9359 67.4503 14.0365 67.4503 14.1381C67.4503 14.2397 67.43 14.3403 67.3904 14.4339C67.3508 14.5275 67.2929 14.6123 67.22 14.6831L60.69 21.2131C60.6192 21.2867 60.5335 21.3443 60.4387 21.3823C60.3439 21.4202 60.2421 21.4375 60.14 21.4331C59.9558 21.4324 59.7782 21.3649 59.64 21.2431C52.4923 14.9034 43.2692 11.4025 33.715 11.4025C24.1608 11.4025 14.9378 14.9034 7.79003 21.2431C7.65595 21.3651 7.48126 21.4328 7.30001 21.4331C7.1966 21.4365 7.09363 21.4187 6.99733 21.3809C6.90104 21.343 6.81346 21.2859 6.74001 21.2131L0.210009 14.6831C0.0788737 14.5372 0.00437639 14.3492 1.7739e-05 14.1531C0.00345321 13.95 0.0859791 13.7563 0.230029 13.6131C9.2033 4.89693 21.2204 0.0213013 33.73 0.0213013C46.2397 0.0213013 58.2568 4.89693 67.23 13.6131L67.22 13.5931ZM67.23 82.6131C67.3741 82.4699 67.4566 82.2762 67.46 82.0731C67.4611 81.9721 67.4413 81.8719 67.4017 81.7789C67.3621 81.686 67.3036 81.6023 67.23 81.5331L60.7 74.9931C60.5586 74.858 60.3706 74.7826 60.175 74.7826C59.9794 74.7826 59.7914 74.858 59.65 74.9931C52.4993 81.3267 43.2774 84.8236 33.725 84.8236C24.1727 84.8236 14.9507 81.3267 7.80001 74.9931C7.66914 74.8649 7.49323 74.7931 7.31002 74.7931C7.20661 74.7897 7.1036 74.8075 7.00731 74.8453C6.91102 74.8831 6.82347 74.9402 6.75002 75.0131L0.220019 81.5531C0.149605 81.6242 0.0939234 81.7085 0.0561701 81.8012C0.0184167 81.8938 -0.000665901 81.993 1.7739e-05 82.0931C0.00345321 82.2962 0.0859791 82.4899 0.230029 82.6331C9.20087 91.3539 21.2189 96.2328 33.73 96.2328C46.2412 96.2328 58.2592 91.3539 67.23 82.6331" fill="#00A3E0"/>
<path d="M33.7299 22.2331C18.5899 22.2331 7.44995 33.3432 7.44995 48.0732C7.44995 62.8032 18.5899 73.9031 33.7299 73.9031C48.8699 73.9031 59.9999 62.8032 59.9999 48.0732C59.9999 33.3432 48.8399 22.2331 33.6899 22.2331H33.7299ZM33.6899 32.2331C42.7499 32.2331 48.3699 39.3531 48.3699 48.1131C48.3699 56.8731 42.7499 63.9831 33.6899 63.9831C24.6299 63.9831 19.0399 56.8831 19.0399 48.1131C19.0399 39.3431 24.6699 32.1531 33.7299 32.1531L33.6899 32.2331ZM100.73 23.7531V33.4031C100.731 33.5042 100.712 33.6044 100.674 33.6979C100.636 33.7914 100.579 33.8762 100.507 33.9472C100.435 34.0182 100.349 34.0739 100.255 34.111C100.161 34.1481 100.061 34.1659 99.9599 34.1631C98.1083 33.7643 96.2234 33.54 94.3299 33.4931C88.1899 33.4931 83.0599 37.7831 83.0599 44.9831V71.5432C83.0599 71.7447 82.9799 71.938 82.8373 72.0805C82.6948 72.2231 82.5015 72.3031 82.2999 72.3031H72.1799C71.9774 72.3031 71.7831 72.2234 71.639 72.0811C71.4949 71.9389 71.4126 71.7456 71.4099 71.5432V24.5432C71.4099 24.3389 71.4911 24.1431 71.6355 23.9987C71.7799 23.8543 71.9757 23.7731 72.1799 23.7731H81.9999C82.1981 23.7731 82.3884 23.8504 82.5304 23.9886C82.6724 24.1268 82.7547 24.315 82.7599 24.5131L82.9799 29.7431H83.1099C83.8399 28.4731 87.4099 22.5131 96.6299 22.5131C97.8548 22.528 99.0722 22.7063 100.25 23.0432C100.41 23.0903 100.551 23.1876 100.652 23.3208C100.753 23.454 100.808 23.6161 100.81 23.7831L100.73 23.7531ZM183.62 24.5432V71.5432C183.621 71.6433 183.603 71.7428 183.565 71.8356C183.527 71.9284 183.471 72.0127 183.4 72.0835C183.329 72.1544 183.245 72.2103 183.152 72.248C183.06 72.2857 182.96 72.3045 182.86 72.3031H172.66C172.458 72.3031 172.265 72.2231 172.123 72.0805C171.98 71.938 171.9 71.7447 171.9 71.5432V24.5432C171.899 24.4425 171.917 24.3426 171.955 24.2492C171.992 24.1559 172.048 24.0709 172.119 23.9993C172.19 23.9276 172.274 23.8708 172.367 23.8319C172.46 23.7931 172.559 23.7731 172.66 23.7731H182.83C182.931 23.7731 183.03 23.7931 183.123 23.8319C183.216 23.8708 183.3 23.9276 183.371 23.9993C183.442 24.0709 183.497 24.1559 183.535 24.2492C183.573 24.3426 183.591 24.4425 183.59 24.5432H183.62ZM185 7.15314C185.026 8.59867 184.621 10.0192 183.836 11.2336C183.052 12.4479 181.923 13.4012 180.595 13.9719C179.266 14.5426 177.798 14.7049 176.377 14.438C174.956 14.1712 173.647 13.4873 172.616 12.4735C171.586 11.4598 170.88 10.162 170.59 8.74576C170.299 7.32948 170.437 5.85878 170.985 4.52112C171.534 3.18345 172.468 2.0394 173.669 1.23477C174.871 0.430144 176.284 0.00138716 177.73 0.00314259C178.682 -0.0252785 179.63 0.13932 180.517 0.487045C181.404 0.834769 182.212 1.35843 182.891 2.02646C183.57 2.69449 184.107 3.49308 184.47 4.37414C184.832 5.25521 185.013 6.20052 185 7.15314ZM230.92 59.0231C230.92 67.4731 223.2 73.9031 211.57 73.9031C204.895 73.8962 198.362 71.981 192.74 68.3831C192.64 68.3172 192.558 68.2262 192.504 68.1193C192.45 68.0123 192.424 67.893 192.43 67.7731C192.457 67.5589 192.525 67.3518 192.63 67.1631L195.56 60.2431C195.618 60.0944 195.722 59.9683 195.857 59.8836C195.992 59.7989 196.151 59.7602 196.31 59.7731C197.62 59.7731 203.58 64.3631 211.93 64.3631C216.98 64.3631 219.77 62.1831 219.77 59.1731C219.77 57.2531 218.83 55.0231 214.25 53.5131L208.68 51.6931C200.09 48.8631 195.27 44.5931 195.27 36.6231C195.27 28.2131 203.12 22.3331 214.36 22.3331C219.401 22.3563 224.359 23.6165 228.8 26.0031C228.92 26.056 229.022 26.1429 229.093 26.2531C229.164 26.3633 229.201 26.492 229.2 26.6231C229.191 26.7925 229.15 26.9587 229.08 27.1131L226.08 34.2031C226.014 34.3482 225.907 34.4704 225.772 34.5541C225.636 34.6379 225.479 34.6793 225.32 34.6731C224.19 34.6731 220.43 31.8331 213.75 31.8331C209.75 31.8331 206.58 33.5531 206.58 37.1131C206.58 40.1131 208.93 41.3631 213.71 42.9331L219.5 44.8431C227.67 47.5231 230.93 52.4531 230.93 59.0231H230.92ZM136.88 22.2431C131.062 22.1148 125.389 24.0649 120.88 27.7431H120.76V2.34314C120.757 2.14066 120.675 1.94736 120.531 1.80511C120.387 1.66287 120.192 1.58311 119.99 1.58313H110.14C109.938 1.58313 109.745 1.66321 109.603 1.80574C109.46 1.94827 109.38 2.14157 109.38 2.34314V47.7731C109.38 63.1831 120.49 73.9031 135.67 73.9031C150.67 73.9031 161.97 62.8031 161.97 48.0631C161.97 32.5531 150.13 22.2431 136.88 22.2431ZM135.66 32.2431C144.72 32.2431 150.34 39.3631 150.34 48.1231C150.34 56.8831 144.72 63.9931 135.66 63.9931C126.6 63.9931 121 56.8432 121 48.0732C121 39.3032 126.61 32.1531 135.67 32.1531" fill="#253746"/>
<path style="mix-blend-mode:multiply" d="M183.8 99.0531H68.27V104.173H183.8V99.0531Z" fill="url(#paint0_linear)"/>
<path d="M217.57 98.6031H205.7L192.56 82.1531C192.519 82.0993 192.466 82.0558 192.406 82.0262C192.345 81.9967 192.278 81.9819 192.21 81.9831H189.21C189.139 81.9831 189.069 81.9993 189.004 82.0305C188.94 82.0616 188.884 82.107 188.84 82.1631C188.781 82.2407 188.749 82.3356 188.75 82.4331C188.742 82.4794 188.742 82.5268 188.75 82.5731L194.01 98.5731H182.71L179.01 94.0531C178.975 94.0068 178.93 93.9692 178.878 93.9432C178.826 93.9172 178.768 93.9035 178.71 93.9031H176.81C176.755 93.9044 176.701 93.9166 176.65 93.9389C176.6 93.9612 176.554 93.9932 176.516 94.0332C176.478 94.0731 176.448 94.1201 176.428 94.1716C176.408 94.2231 176.399 94.2779 176.4 94.3331C176.395 94.373 176.395 94.4132 176.4 94.4531L178.8 101.603L176.4 108.753C176.394 108.793 176.394 108.833 176.4 108.873C176.399 108.928 176.408 108.982 176.428 109.033C176.448 109.084 176.478 109.13 176.517 109.169C176.555 109.209 176.601 109.24 176.651 109.261C176.701 109.282 176.755 109.293 176.81 109.293H178.71C178.768 109.295 178.825 109.283 178.877 109.259C178.929 109.234 178.974 109.198 179.01 109.153L182.71 104.623H194L188.74 120.623C188.731 120.673 188.731 120.724 188.74 120.773C188.741 120.867 188.772 120.959 188.83 121.033C188.872 121.092 188.927 121.14 188.992 121.173C189.056 121.207 189.128 121.224 189.2 121.223H192.2C192.267 121.222 192.334 121.206 192.394 121.177C192.454 121.148 192.508 121.105 192.55 121.053L205.69 104.623H217.56C219.56 104.623 221.2 103.273 221.2 101.623C221.2 99.9731 219.57 98.6231 217.56 98.6231" fill="#253746"/>
<defs>
<linearGradient id="paint0_linear" x1="68.27" y1="101.753" x2="183.8" y2="101.753" gradientUnits="userSpaceOnUse">
<stop stop-color="white" stop-opacity="0"/>
<stop offset="0.401042" stop-color="#9E9CA6" stop-opacity="0.6"/>
<stop offset="0.994792" stop-color="#9E9CA6"/>
</linearGradient>
</defs>
</svg>
