<svg width="133" height="70" viewBox="0 0 133 70" fill="none" xmlns="http://www.w3.org/2000/svg">
<path d="M38.7142 7.8493C38.7561 7.8902 38.7895 7.93913 38.8123 7.99318C38.8351 8.04724 38.8468 8.10531 38.8468 8.164C38.8468 8.22268 38.8351 8.28077 38.8123 8.33483C38.7895 8.38888 38.7561 8.43781 38.7142 8.47871L34.9533 12.2494C34.9125 12.2919 34.8632 12.3252 34.8086 12.3471C34.754 12.369 34.6954 12.379 34.6366 12.3765C34.5305 12.3761 34.4282 12.3371 34.3486 12.2668C30.232 8.60592 24.9201 6.58435 19.4176 6.58435C13.915 6.58435 8.60316 8.60592 4.48653 12.2668C4.40931 12.3372 4.3087 12.3763 4.20431 12.3765C4.14476 12.3784 4.08545 12.3682 4.02999 12.3463C3.97453 12.3245 3.92409 12.2915 3.88179 12.2494L0.120951 8.47871C0.0454259 8.39448 0.0025205 8.2859 1.02165e-05 8.17267C0.00198881 8.0554 0.0495182 7.94352 0.132481 7.86084C5.30048 2.82772 12.2215 0.0122986 19.4262 0.0122986C26.6309 0.0122986 33.5519 2.82772 38.7199 7.86084L38.7142 7.8493ZM38.7199 47.7047C38.8029 47.622 38.8504 47.5102 38.8524 47.3929C38.853 47.3346 38.8416 47.2767 38.8188 47.223C38.796 47.1694 38.7623 47.121 38.7199 47.0811L34.9591 43.3046C34.8777 43.2266 34.7694 43.183 34.6567 43.183C34.5441 43.183 34.4358 43.2266 34.3544 43.3046C30.236 46.9619 24.9248 48.9812 19.4233 48.9812C13.9218 48.9812 8.6106 46.9619 4.49227 43.3046C4.4169 43.2305 4.31559 43.1891 4.21007 43.1891C4.15052 43.1871 4.09119 43.1974 4.03574 43.2192C3.98028 43.2411 3.92986 43.274 3.88755 43.3161L0.126716 47.0926C0.0861626 47.1337 0.0540935 47.1824 0.0323502 47.2359C0.0106068 47.2894 -0.000383514 47.3467 1.02165e-05 47.4045C0.00198881 47.5217 0.0495182 47.6336 0.132481 47.7163C5.29908 52.7521 12.2206 55.5694 19.4262 55.5694C26.6318 55.5694 33.5533 52.7521 38.7199 47.7163" fill="#00A3E0"/>
<path d="M19.4261 12.8385C10.7065 12.8385 4.29065 19.2539 4.29065 27.7597C4.29065 36.2655 10.7065 42.6752 19.4261 42.6752C28.1458 42.6752 34.5559 36.2655 34.5559 27.7597C34.5559 19.2539 28.1285 12.8385 19.4031 12.8385H19.4261ZM19.4031 18.6129C24.6211 18.6129 27.8578 22.7244 27.8578 27.7828C27.8578 32.8413 24.6211 36.9469 19.4031 36.9469C14.1852 36.9469 10.9657 32.847 10.9657 27.7828C10.9657 22.7186 14.2082 18.5668 19.4261 18.5668L19.4031 18.6129ZM58.0136 13.7162V19.2886C58.0144 19.3469 58.0034 19.4048 57.9814 19.4588C57.9593 19.5128 57.9265 19.5617 57.8851 19.6027C57.8437 19.6437 57.7944 19.6759 57.7403 19.6973C57.6862 19.7187 57.6283 19.729 57.5701 19.7274C56.5037 19.4971 55.4182 19.3676 54.3276 19.3405C50.7914 19.3405 47.8369 21.8178 47.8369 25.9754V41.3124C47.8369 41.4288 47.7908 41.5404 47.7087 41.6227C47.6266 41.705 47.5153 41.7513 47.3992 41.7513H41.5707C41.4541 41.7513 41.3422 41.7052 41.2592 41.6231C41.1762 41.5409 41.1288 41.4293 41.1273 41.3124V14.1724C41.1273 14.0545 41.174 13.9414 41.2572 13.858C41.3403 13.7746 41.4531 13.7277 41.5707 13.7277H47.2264C47.3405 13.7277 47.4501 13.7723 47.5319 13.8522C47.6137 13.932 47.6611 14.0407 47.6641 14.155L47.7908 17.1751H47.8657C48.2861 16.4417 50.3422 13.0001 55.6523 13.0001C56.3577 13.0087 57.0589 13.1117 57.7372 13.3062C57.8295 13.3334 57.9106 13.3896 57.9687 13.4665C58.0267 13.5435 58.0586 13.6371 58.0597 13.7335L58.0136 13.7162ZM105.753 14.1724V41.3124C105.753 41.3703 105.743 41.4277 105.721 41.4813C105.699 41.5349 105.667 41.5836 105.626 41.6245C105.585 41.6654 105.537 41.6977 105.483 41.7194C105.43 41.7412 105.373 41.752 105.315 41.7513H99.4404C99.3243 41.7513 99.213 41.705 99.1309 41.6227C99.0488 41.5404 99.0027 41.4288 99.0027 41.3124V14.1724C99.0019 14.1143 99.0127 14.0566 99.0344 14.0027C99.056 13.9488 99.0881 13.8997 99.1288 13.8583C99.1696 13.817 99.2181 13.7841 99.2716 13.7617C99.325 13.7393 99.3824 13.7277 99.4404 13.7277H105.298C105.356 13.7277 105.413 13.7393 105.466 13.7617C105.52 13.7841 105.568 13.817 105.609 13.8583C105.65 13.8997 105.682 13.9488 105.704 14.0027C105.725 14.0566 105.736 14.1143 105.735 14.1724H105.753ZM106.547 4.13056C106.562 4.96528 106.329 5.78554 105.877 6.48679C105.425 7.18803 104.775 7.7385 104.01 8.06805C103.245 8.39761 102.4 8.49131 101.581 8.33722C100.763 8.18312 100.009 7.78821 99.4153 7.20282C98.8217 6.61742 98.4153 5.86804 98.248 5.05022C98.0807 4.23239 98.1601 3.38314 98.476 2.61071C98.7919 1.83828 99.33 1.17765 100.022 0.713016C100.714 0.248385 101.528 0.000801012 102.36 0.00181468C102.909 -0.014597 103.455 0.0804501 103.966 0.281243C104.477 0.482035 104.942 0.78442 105.333 1.17017C105.724 1.55593 106.033 2.01707 106.242 2.52584C106.451 3.03461 106.555 3.58047 106.547 4.13056ZM132.994 34.0828C132.994 38.9622 128.548 42.6752 121.85 42.6752C118.006 42.6712 114.243 41.5652 111.005 39.4877C110.947 39.4496 110.901 39.3971 110.869 39.3353C110.838 39.2735 110.823 39.2046 110.827 39.1354C110.842 39.0117 110.881 38.8922 110.942 38.7832L112.629 34.7873C112.662 34.7014 112.722 34.6286 112.8 34.5797C112.878 34.5308 112.97 34.5084 113.061 34.5159C113.816 34.5159 117.248 37.1663 122.057 37.1663C124.966 37.1663 126.573 35.9075 126.573 34.1694C126.573 33.0607 126.031 31.773 123.393 30.901L120.185 29.8501C115.238 28.2159 112.462 25.7502 112.462 21.1479C112.462 16.2916 116.983 12.8962 123.457 12.8962C126.36 12.9096 129.216 13.6373 131.773 15.0155C131.842 15.046 131.901 15.0962 131.942 15.1598C131.983 15.2234 132.004 15.2977 132.004 15.3735C131.998 15.4713 131.975 15.5672 131.935 15.6564L130.207 19.7505C130.169 19.8343 130.107 19.9049 130.029 19.9532C129.951 20.0016 129.861 20.0255 129.769 20.0219C129.118 20.0219 126.953 18.382 123.105 18.382C120.802 18.382 118.976 19.3752 118.976 21.4309C118.976 23.1632 120.329 23.885 123.082 24.7916L126.417 25.8946C131.122 27.4421 133 30.2889 133 34.0828H132.994ZM78.8336 12.8442C75.4829 12.7702 72.2157 13.8962 69.6186 16.0202H69.5495V1.35304C69.548 1.23612 69.5006 1.1245 69.4176 1.04236C69.3346 0.960218 69.2227 0.914164 69.1061 0.914174H63.4331C63.317 0.914174 63.2057 0.960418 63.1236 1.04272C63.0415 1.12502 62.9954 1.23665 62.9954 1.35304V27.5865C62.9954 36.4849 69.394 42.6752 78.1367 42.6752C86.7757 42.6752 93.2837 36.2655 93.2837 27.7539C93.2837 18.7977 86.4647 12.8442 78.8336 12.8442ZM78.1309 18.6187C83.3489 18.6187 86.5856 22.7301 86.5856 27.7886C86.5856 32.847 83.3489 36.9527 78.1309 36.9527C72.913 36.9527 69.6878 32.8239 69.6878 27.7597C69.6878 22.6955 72.9187 18.5668 78.1367 18.5668" fill="white"/>
<path d="M105.856 57.198H39.3188V60.1545H105.856V57.198Z" fill="url(#paint0_linear_1163_500)" style="mix-blend-mode:multiply"/>
<path d="M125.306 56.9381H118.469L110.902 47.4391C110.878 47.408 110.848 47.3829 110.812 47.3659C110.777 47.3488 110.739 47.3403 110.7 47.3409H108.972C108.931 47.3409 108.891 47.3503 108.854 47.3683C108.817 47.3863 108.784 47.4125 108.759 47.4449C108.725 47.4897 108.707 47.5445 108.707 47.6008C108.702 47.6275 108.702 47.6549 108.707 47.6817L111.737 56.9208H105.229L103.098 54.3107C103.077 54.284 103.051 54.2623 103.021 54.2473C102.991 54.2323 102.958 54.2244 102.925 54.2241H101.831C101.799 54.2249 101.768 54.2319 101.738 54.2448C101.709 54.2577 101.683 54.2762 101.661 54.2992C101.639 54.3223 101.622 54.3495 101.611 54.3792C101.599 54.4089 101.594 54.4406 101.594 54.4724C101.592 54.4954 101.592 54.5187 101.594 54.5417L102.977 58.6705L101.594 62.7992C101.591 62.8222 101.591 62.8456 101.594 62.8685C101.594 62.9001 101.599 62.9315 101.611 62.9609C101.622 62.9903 101.64 63.0171 101.662 63.0397C101.684 63.0623 101.71 63.0802 101.739 63.0925C101.768 63.1047 101.799 63.1111 101.831 63.1111H102.925C102.958 63.112 102.991 63.1051 103.021 63.0911C103.051 63.0771 103.077 63.0562 103.098 63.0302L105.229 60.4144H111.731L108.701 69.6535C108.696 69.6821 108.696 69.7115 108.701 69.7401C108.702 69.7945 108.72 69.8473 108.753 69.8903C108.777 69.9244 108.809 69.9522 108.846 69.9713C108.884 69.9904 108.925 70.0003 108.966 70H110.694C110.733 69.9994 110.771 69.9903 110.806 69.9733C110.841 69.9564 110.871 69.932 110.896 69.9018L118.464 60.4144H125.3C126.452 60.4144 127.396 59.6348 127.396 58.682C127.396 57.7292 126.457 56.9497 125.3 56.9497" fill="white"/>
<defs>
<linearGradient id="paint0_linear_1163_500" x1="39.3188" y1="58.7571" x2="105.856" y2="58.7571" gradientUnits="userSpaceOnUse">
<stop stop-color="white" stop-opacity="0"/>
<stop offset="0.401042" stop-color="white" stop-opacity="0.6"/>
<stop offset="0.994792" stop-color="white"/>
</linearGradient>
</defs>
</svg>
