<svg width="133" height="70" viewBox="0 0 133 70" fill="none" xmlns="http://www.w3.org/2000/svg">
<path d="M38.7142 7.8493C38.7561 7.8902 38.7895 7.93913 38.8123 7.99318C38.8351 8.04724 38.8468 8.10531 38.8468 8.164C38.8468 8.22268 38.8351 8.28077 38.8123 8.33483C38.7895 8.38888 38.7561 8.43781 38.7142 8.47871L34.9533 12.2494C34.9125 12.2919 34.8632 12.3252 34.8086 12.3471C34.754 12.369 34.6954 12.379 34.6366 12.3765C34.5305 12.3761 34.4282 12.3371 34.3486 12.2668C30.232 8.60592 24.9201 6.58435 19.4176 6.58435C13.915 6.58435 8.60316 8.60592 4.48653 12.2668C4.40931 12.3372 4.3087 12.3763 4.20431 12.3765C4.14476 12.3784 4.08545 12.3682 4.02999 12.3463C3.97453 12.3245 3.92409 12.2915 3.88179 12.2494L0.120951 8.47871C0.0454259 8.39448 0.0025205 8.2859 1.02165e-05 8.17267C0.00198881 8.0554 0.0495182 7.94352 0.132481 7.86084C5.30048 2.82772 12.2215 0.0122986 19.4262 0.0122986C26.6309 0.0122986 33.5519 2.82772 38.7199 7.86084L38.7142 7.8493ZM38.7199 47.7047C38.8029 47.622 38.8504 47.5102 38.8524 47.3929C38.853 47.3346 38.8416 47.2767 38.8188 47.223C38.796 47.1694 38.7623 47.121 38.7199 47.0811L34.9591 43.3046C34.8777 43.2266 34.7694 43.183 34.6567 43.183C34.5441 43.183 34.4358 43.2266 34.3544 43.3046C30.236 46.9619 24.9248 48.9812 19.4233 48.9812C13.9218 48.9812 8.6106 46.9619 4.49227 43.3046C4.4169 43.2305 4.31559 43.1891 4.21007 43.1891C4.15052 43.1871 4.0912 43.1974 4.03574 43.2192C3.98028 43.2411 3.92986 43.274 3.88755 43.3161L0.126716 47.0926C0.0861626 47.1337 0.0540935 47.1824 0.0323502 47.2359C0.0106068 47.2894 -0.000383514 47.3467 1.02165e-05 47.4045C0.00198881 47.5217 0.0495182 47.6336 0.132481 47.7163C5.29908 52.7521 12.2206 55.5694 19.4262 55.5694C26.6318 55.5694 33.5533 52.7521 38.7199 47.7163" fill="#00A3E0"/>
<path d="M19.4265 12.8385C10.7069 12.8385 4.29102 19.2539 4.29102 27.7597C4.29102 36.2655 10.7069 42.6752 19.4265 42.6752C28.1461 42.6752 34.5562 36.2655 34.5562 27.7597C34.5562 19.2539 28.1288 12.8385 19.4035 12.8385H19.4265ZM19.4035 18.6129C24.6214 18.6129 27.8582 22.7244 27.8582 27.7828C27.8582 32.8413 24.6214 36.9469 19.4035 36.9469C14.1855 36.9469 10.9661 32.847 10.9661 27.7828C10.9661 22.7186 14.2086 18.5668 19.4265 18.5668L19.4035 18.6129ZM58.014 13.7162V19.2886C58.0148 19.3469 58.0038 19.4048 57.9817 19.4588C57.9596 19.5128 57.9269 19.5617 57.8855 19.6027C57.8441 19.6437 57.7948 19.6759 57.7407 19.6973C57.6866 19.7187 57.6287 19.729 57.5705 19.7274C56.5041 19.4971 55.4185 19.3676 54.328 19.3405C50.7918 19.3405 47.8372 21.8178 47.8372 25.9754V41.3124C47.8372 41.4288 47.7911 41.5404 47.709 41.6227C47.627 41.705 47.5156 41.7513 47.3995 41.7513H41.5711C41.4545 41.7513 41.3425 41.7052 41.2595 41.6231C41.1765 41.5409 41.1292 41.4293 41.1276 41.3124V14.1724C41.1276 14.0545 41.1744 13.9414 41.2575 13.858C41.3407 13.7746 41.4535 13.7277 41.5711 13.7277H47.2268C47.3409 13.7277 47.4505 13.7723 47.5323 13.8522C47.614 13.932 47.6615 14.0407 47.6645 14.155L47.7912 17.1751H47.866C48.2865 16.4417 50.3426 13.0001 55.6526 13.0001C56.3581 13.0087 57.0592 13.1117 57.7375 13.3062C57.8298 13.3334 57.911 13.3896 57.9691 13.4665C58.0271 13.5435 58.059 13.6371 58.06 13.7335L58.014 13.7162ZM105.753 14.1724V41.3124C105.754 41.3703 105.743 41.4277 105.721 41.4813C105.7 41.5349 105.667 41.5835 105.627 41.6245C105.586 41.6654 105.537 41.6977 105.484 41.7194C105.43 41.7412 105.373 41.752 105.315 41.7513H99.4408C99.3247 41.7513 99.2133 41.705 99.1313 41.6227C99.0492 41.5404 99.0031 41.4288 99.0031 41.3124V14.1724C99.0023 14.1143 99.0131 14.0566 99.0347 14.0027C99.0564 13.9488 99.0885 13.8997 99.1292 13.8583C99.1699 13.817 99.2184 13.7841 99.2719 13.7617C99.3254 13.7393 99.3828 13.7277 99.4408 13.7277H105.298C105.356 13.7277 105.413 13.7393 105.467 13.7617C105.52 13.7841 105.569 13.817 105.61 13.8583C105.65 13.8997 105.682 13.9488 105.704 14.0027C105.726 14.0566 105.736 14.1143 105.736 14.1724H105.753ZM106.548 4.13056C106.563 4.96528 106.329 5.78554 105.877 6.48679C105.426 7.18803 104.776 7.7385 104.011 8.06805C103.246 8.3976 102.4 8.49131 101.582 8.33722C100.763 8.18312 100.009 7.78821 99.4157 7.20282C98.822 6.61742 98.4157 5.86804 98.2484 5.05022C98.0811 4.23239 98.1605 3.38314 98.4764 2.61071C98.7923 1.83828 99.3304 1.17765 100.022 0.713016C100.714 0.248385 101.528 0.000801013 102.361 0.00181468C102.909 -0.014597 103.455 0.0804501 103.966 0.281243C104.477 0.482035 104.942 0.78442 105.333 1.17017C105.724 1.55593 106.034 2.01707 106.242 2.52584C106.451 3.03461 106.555 3.58047 106.548 4.13056ZM132.995 34.0828C132.995 38.9622 128.548 42.6752 121.85 42.6752C118.006 42.6712 114.243 41.5652 111.005 39.4877C110.948 39.4496 110.901 39.3971 110.87 39.3353C110.838 39.2735 110.824 39.2046 110.827 39.1354C110.843 39.0117 110.882 38.8922 110.942 38.7832L112.63 34.7873C112.663 34.7014 112.723 34.6286 112.801 34.5797C112.879 34.5308 112.97 34.5084 113.062 34.5159C113.816 34.5159 117.249 37.1663 122.058 37.1663C124.966 37.1663 126.573 35.9075 126.573 34.1694C126.573 33.0607 126.032 31.773 123.394 30.901L120.186 29.8501C115.239 28.2159 112.463 25.7502 112.463 21.1479C112.463 16.2916 116.984 12.8962 123.457 12.8962C126.361 12.9096 129.216 13.6373 131.774 15.0155C131.843 15.046 131.901 15.0962 131.942 15.1598C131.983 15.2234 132.005 15.2977 132.004 15.3735C131.999 15.4713 131.975 15.5672 131.935 15.6564L130.207 19.7505C130.169 19.8343 130.108 19.9049 130.03 19.9532C129.952 20.0016 129.861 20.0255 129.769 20.0219C129.119 20.0219 126.953 18.382 123.106 18.382C120.802 18.382 118.976 19.3752 118.976 21.4309C118.976 23.1632 120.33 23.885 123.083 24.7916L126.417 25.8946C131.123 27.4421 133 30.2889 133 34.0828H132.995ZM78.8339 12.8442C75.4833 12.7702 72.2161 13.8962 69.619 16.0202H69.5499V1.35304C69.5484 1.23612 69.501 1.1245 69.418 1.04236C69.335 0.960218 69.223 0.914164 69.1064 0.914174H63.4335C63.3174 0.914174 63.2061 0.960418 63.124 1.04272C63.0419 1.12502 62.9958 1.23665 62.9958 1.35304V27.5865C62.9958 36.4849 69.3944 42.6752 78.1371 42.6752C86.776 42.6752 93.2841 36.2655 93.2841 27.7539C93.2841 18.7977 86.465 12.8442 78.8339 12.8442ZM78.1313 18.6187C83.3492 18.6187 86.586 22.7302 86.586 27.7886C86.586 32.847 83.3492 36.9527 78.1313 36.9527C72.9133 36.9527 69.6881 32.8239 69.6881 27.7597C69.6881 22.6955 72.9191 18.5668 78.1371 18.5668" fill="white"/>
<path d="M105.857 57.198H39.3193V60.1545H105.857V57.198Z" fill="url(#paint0_linear)" style="mix-blend-mode:multiply"/>
<path d="M125.306 56.9381H118.469L110.902 47.4391C110.878 47.408 110.848 47.3829 110.813 47.3659C110.778 47.3488 110.739 47.3403 110.7 47.3409H108.972C108.931 47.3409 108.891 47.3503 108.854 47.3683C108.817 47.3863 108.785 47.4125 108.759 47.4449C108.725 47.4897 108.707 47.5445 108.707 47.6008C108.703 47.6275 108.703 47.6549 108.707 47.6817L111.737 56.9208H105.229L103.098 54.3107C103.078 54.284 103.051 54.2623 103.021 54.2473C102.992 54.2323 102.959 54.2244 102.925 54.2241H101.831C101.799 54.2249 101.768 54.2319 101.739 54.2448C101.71 54.2577 101.683 54.2762 101.661 54.2992C101.639 54.3223 101.622 54.3495 101.611 54.3792C101.599 54.4089 101.594 54.4406 101.595 54.4724C101.592 54.4954 101.592 54.5187 101.595 54.5417L102.977 58.6705L101.595 62.7992C101.591 62.8222 101.591 62.8456 101.595 62.8685C101.594 62.9001 101.599 62.9315 101.611 62.9609C101.622 62.9903 101.64 63.0171 101.662 63.0397C101.684 63.0623 101.71 63.0802 101.739 63.0925C101.768 63.1047 101.799 63.1111 101.831 63.1111H102.925C102.958 63.112 102.991 63.1051 103.021 63.0911C103.051 63.0771 103.077 63.0562 103.098 63.0302L105.229 60.4144H111.731L108.702 69.6535C108.696 69.6821 108.696 69.7115 108.702 69.7401C108.702 69.7945 108.72 69.8473 108.753 69.8903C108.778 69.9244 108.81 69.9522 108.847 69.9713C108.884 69.9904 108.925 70.0003 108.967 70H110.694C110.733 69.9994 110.771 69.9903 110.806 69.9733C110.841 69.9564 110.872 69.932 110.896 69.9018L118.464 60.4144H125.3C126.452 60.4144 127.396 59.6348 127.396 58.682C127.396 57.7292 126.458 56.9497 125.3 56.9497" fill="white"/>
<defs>
<linearGradient id="paint0_linear" x1="39.3193" y1="58.7571" x2="105.857" y2="58.7571" gradientUnits="userSpaceOnUse">
<stop stop-color="white" stop-opacity="0"/>
<stop offset="0.401042" stop-color="white" stop-opacity="0.6"/>
<stop offset="0.994792" stop-color="white"/>
</linearGradient>
</defs>
</svg>
